<svg xmlns="http://www.w3.org/2000/svg" viewBox="0 0 720.87 275.58"><path d="M623.58,375.29c-22.41,0-43.43-3.81-62.46-11.34a209.42,209.42,0,0,1-49.36-27.14c-13.46-10.15-29.45-23.55-47.5-39.84-22-19.06-39.87-33-53-41.32a70.19,70.19,0,0,0-38.74-11.13c-23.49,0-43.67,8.29-61.7,25.35-19.23,18.2-38.34,44.65-56.78,78.62a12.51,12.51,0,0,1-16.5,5.25l-78.47-38.58a12.5,12.5,0,0,1-5.63-16.87c16.37-32.31,33.81-60.87,51.82-84.89,18.54-24.71,42.18-45.81,70.25-62.71,28.67-17.24,62.63-26,100.93-26,24.1,0,46.5,3.91,66.59,11.62,19.8,7.6,37.15,17.11,51.56,28.26,13.65,10.57,29.73,24.19,47.8,40.49,19.93,18.24,36.32,31.56,48.79,39.67a64.75,64.75,0,0,0,36.34,10.73c22.2,0,42.18-8.62,61.09-26.37C708.65,210.29,728,184,746,150.85a12.49,12.49,0,0,1,16.72-5.13l78.46,40.54a12.5,12.5,0,0,1,5.36,16.85c-25.8,49.83-55.67,91.09-88.78,122.63C723.23,358.62,678.09,375.29,623.58,375.29Z" transform="translate(-139.57 -112.21)" fill="#fff"/><path d="M376.42,137.21q34,0,62.12,10.79t48.38,26.48q20.26,15.69,47.08,39.88,30.72,28.13,50.35,40.87A77.57,77.57,0,0,0,627.5,268q37.92,0,69.64-29.75T757,156.82l78.46,40.54q-37.92,73.25-86.31,119.33t-125.54,46.1q-31.38,0-57.87-10.46a196.25,196.25,0,0,1-46.42-25.5q-19.95-15-46.75-39.23-34-29.43-54.6-42.5A83.06,83.06,0,0,0,372.5,232q-39.9,0-70.29,28.77T243,342.52l-78.46-38.58q24.18-47.71,50.67-83t66.7-59.5q40.2-24.18,94.48-24.19m0-25c-40.61,0-76.73,9.34-107.37,27.77-29.47,17.73-54.3,39.91-73.81,65.92-18.45,24.6-36.27,53.78-53,86.74a25,25,0,0,0,11.27,33.74L232,365a25,25,0,0,0,33-10.51c17.82-32.8,36.12-58.21,54.39-75.51C335,264.19,352.36,257,372.5,257a58.1,58.1,0,0,1,32.05,9.18c12.6,8,29.91,21.52,51.43,40.13,18.29,16.5,34.52,30.11,48.27,40.47a221.57,221.57,0,0,0,52.29,28.78c20.49,8.1,43.05,12.21,67,12.21,57.83,0,105.87-17.83,142.79-53,34.11-32.51,64.82-74.88,91.26-125.94a25,25,0,0,0-10.72-33.71l-78.46-40.54A25,25,0,0,0,735,144.87c-17.38,31.94-35.88,57.22-55,75.13-16.49,15.46-33.67,23-52.54,23A52.62,52.62,0,0,1,598,234.27c-11.89-7.73-27.74-20.63-47.09-38.35l-.14-.12c-18.3-16.51-34.62-30.33-48.51-41.09-15.39-11.91-33.8-22-54.73-30.05-21.54-8.26-45.45-12.45-71.08-12.45Z" transform="translate(-139.57 -112.21)" fill="#181818"/></svg>